<?xml version="1.0" encoding="UTF-8" standalone="no"?>
<!-- Created with Inkscape (http://www.inkscape.org/) -->

<svg
   xmlns:dc="http://purl.org/dc/elements/1.1/"
   xmlns:cc="http://creativecommons.org/ns#"
   xmlns:rdf="http://www.w3.org/1999/02/22-rdf-syntax-ns#"
   xmlns:svg="http://www.w3.org/2000/svg"
   xmlns="http://www.w3.org/2000/svg"
   xmlns:sodipodi="http://sodipodi.sourceforge.net/DTD/sodipodi-0.dtd"
   xmlns:inkscape="http://www.inkscape.org/namespaces/inkscape"
   width="1062.9921"
   height="1062.9921"
   id="svg2"
   version="1.1"
   inkscape:version="0.48.3.1 r9886"
   sodipodi:docname="New document 1">
  <defs
     id="defs4" />
  <sodipodi:namedview
     id="base"
     pagecolor="#ffffff"
     bordercolor="#666666"
     borderopacity="1.0"
     inkscape:pageopacity="0.0"
     inkscape:pageshadow="2"
     inkscape:zoom="0.47"
     inkscape:cx="375"
     inkscape:cy="520"
     inkscape:document-units="mm"
     inkscape:current-layer="layer1"
     showgrid="false"
     units="mm"
     inkscape:window-width="985"
     inkscape:window-height="716"
     inkscape:window-x="229"
     inkscape:window-y="24"
     inkscape:window-maximized="0" />
  <metadata
     id="metadata7">
    <rdf:RDF>
      <cc:Work
         rdf:about="">
        <dc:format>image/svg+xml</dc:format>
        <dc:type
           rdf:resource="http://purl.org/dc/dcmitype/StillImage" />
        <dc:title></dc:title>
      </cc:Work>
    </rdf:RDF>
  </metadata>
  <g
     inkscape:label="Layer 1"
     inkscape:groupmode="layer"
     id="layer1"
     transform="translate(0,10.629915)">
    <g
       id="g3079"
       transform="matrix(1.25,0,0,1.25,20.244246,171.59323)"
       style="stroke-width:0.99212598;stroke-miterlimit:4;stroke-dasharray:none">
      <g
         id="g3063"
         transform="matrix(0.1,0,0,-0.1,0,533)"
         style="fill:none;stroke:#000000;stroke-width:9.92125984;stroke-miterlimit:4;stroke-dasharray:none">
        <path
           id="path3065"
           d="m 762,5320 c -33,-8 -82,-45 -82,-63 0,-5 -8,-21 -19,-35 -24,-35 -33,-72 -36,-157 -4,-94 23,-272 50,-325 7,-14 23,-49 36,-78 12,-29 35,-67 51,-84 15,-17 38,-46 50,-64 13,-19 26,-34 31,-34 4,0 7,-6 7,-13 0,-8 9,-22 20,-32 12,-10 19,-24 16,-31 -3,-7 2,-18 9,-24 8,-7 13,-16 10,-20 -3,-5 -8,-32 -11,-62 -8,-77 -23,-128 -38,-128 -29,0 -76,-33 -95,-66 -12,-20 -30,-38 -41,-41 -11,-3 -20,-14 -20,-24 0,-12 -7,-19 -19,-19 -22,0 -35,-30 -26,-60 5,-15 0,-22 -19,-30 -14,-5 -26,-16 -26,-25 0,-8 -4,-15 -10,-15 -5,0 -10,-10 -10,-23 0,-12 -8,-30 -17,-39 -49,-47 -55,-58 -50,-84 4,-22 0,-28 -27,-39 -20,-9 -37,-10 -48,-4 -23,12 -65,11 -91,-3 -12,-6 -46,-36 -75,-67 -124,-132 -145,-153 -169,-162 -13,-5 -22,-13 -18,-18 3,-5 -3,-12 -14,-16 -21,-6 -31,-33 -31,-82 0,-17 -5,-35 -10,-38 -6,-3 -10,-18 -10,-32 0,-15 -7,-34 -16,-44 -14,-15 -13,-19 10,-44 15,-16 26,-40 26,-56 0,-38 9,-59 26,-59 8,0 17,-8 21,-17 3,-10 13,-26 21,-35 13,-16 13,-21 -1,-50 -18,-37 -8,-68 22,-68 10,0 29,-9 42,-19 14,-10 36,-21 49,-23 20,-2 27,-11 35,-43 5,-22 17,-48 26,-58 10,-10 20,-35 24,-55 4,-21 11,-42 16,-48 5,-6 10,-39 11,-72 1,-37 6,-63 14,-66 18,-7 27,-91 13,-114 -10,-16 -9,-24 9,-47 13,-17 22,-42 22,-64 0,-29 5,-38 28,-49 16,-7 28,-9 30,-3 4,13 52,-8 52,-23 0,-6 -7,-23 -14,-38 -9,-16 -11,-30 -5,-33 5,-4 9,-26 9,-51 0,-30 6,-50 19,-63 11,-11 16,-22 13,-26 -4,-4 1,-13 11,-20 17,-12 17,-17 6,-49 -11,-31 -11,-38 4,-54 9,-10 17,-23 17,-29 0,-6 4,-13 8,-15 12,-5 52,-139 52,-176 0,-18 -5,-32 -11,-32 -7,0 -9,-12 -6,-32 7,-43 -12,-175 -30,-211 -7,-15 -14,-44 -14,-65 0,-100 -5,-151 -17,-165 -8,-9 -14,-45 -15,-81 -1,-36 -5,-66 -8,-66 -14,0 -26,-46 -16,-62 8,-12 7,-24 -3,-45 -21,-46 -21,-86 0,-153 11,-34 20,-69 20,-76 0,-8 6,-14 14,-14 7,0 17,-8 20,-17 9,-24 31,-62 45,-76 6,-6 11,-25 11,-43 0,-29 5,-34 62,-62 64,-30 201,-72 238,-72 11,0 20,-6 20,-13 0,-20 149,-129 195,-142 62,-18 77,-26 115,-62 19,-19 47,-41 62,-50 32,-20 50,-56 43,-86 -9,-37 7,-50 41,-35 16,7 31,15 34,18 3,3 14,10 25,16 11,6 25,20 30,30 6,10 17,20 25,22 25,6 39,22 65,78 21,45 29,53 43,46 37,-20 71,14 72,69 0,21 7,42 16,50 9,7 25,32 35,55 11,23 29,44 39,47 10,3 30,24 45,47 23,37 26,51 23,109 -3,58 -1,67 17,75 11,5 36,31 54,57 18,27 37,49 41,49 14,0 50,38 50,52 0,9 6,20 13,26 12,9 121,41 162,47 11,1 23,3 28,4 4,0 20,13 36,29 16,15 40,37 53,49 12,12 34,34 48,48 14,14 37,29 52,32 15,3 35,14 44,24 9,11 29,19 44,19 49,0 127,48 152,93 14,25 37,49 58,59 19,10 52,34 72,54 48,48 143,75 218,63 29,-4 57,-12 63,-17 32,-26 143,-35 165,-15 13,13 44,17 90,13 12,-1 38,8 57,19 19,11 41,18 49,15 8,-3 43,14 79,38 132,87 184,118 195,118 18,0 166,51 172,59 3,4 19,12 35,18 80,28 115,49 126,75 6,16 17,28 23,28 21,0 125,84 131,106 4,11 18,26 33,32 53,24 126,70 141,90 9,11 36,34 61,51 40,29 81,67 166,152 19,19 27,38 28,68 0,26 5,41 13,41 7,0 13,11 13,24 0,14 5,28 10,31 6,3 10,10 10,14 0,18 -52,59 -81,65 -17,3 -43,15 -59,26 -15,11 -34,20 -42,20 -12,0 -57,23 -154,77 -21,12 -45,31 -52,42 -7,12 -19,21 -27,21 -8,0 -15,4 -15,8 0,13 -36,52 -47,52 -22,0 -44,39 -41,72 2,27 0,33 -17,34 -28,1 -105,42 -106,57 -7,80 -7,138 2,163 10,32 9,37 -27,121 -8,17 -14,34 -14,37 0,4 -10,20 -22,36 -20,27 -25,29 -75,25 -31,-3 -53,-1 -53,5 0,16 -37,11 -44,-6 -3,-8 -10,-13 -14,-10 -5,3 -18,-1 -28,-8 -13,-10 -23,-11 -31,-4 -9,7 -15,6 -19,-6 -9,-24 -51,-20 -68,7 -9,15 -13,40 -10,77 10,131 11,216 3,226 -6,7 -3,26 6,48 17,40 26,136 13,136 -4,0 -8,7 -8,15 0,8 -16,25 -35,37 -19,13 -37,30 -40,39 -3,9 -14,19 -24,22 -10,2 -21,17 -24,33 -9,41 -57,97 -172,198 -33,30 -69,56 -80,60 -12,3 -28,19 -37,34 -9,15 -46,45 -82,66 -36,21 -66,43 -66,47 0,5 -7,9 -15,9 -8,0 -15,4 -15,9 0,15 -95,80 -139,96 -61,21 -211,96 -211,105 0,4 -12,10 -27,13 -16,3 -45,17 -66,31 -21,14 -44,26 -52,26 -7,0 -26,11 -42,23 -24,20 -88,53 -218,112 -16,7 -56,21 -87,30 -32,9 -61,21 -64,26 -3,5 -9,7 -14,4 -9,-6 -161,42 -175,56 -14,14 -66,11 -99,-6 -44,-23 -73,-19 -98,16 -22,29 -91,69 -120,69 -7,0 -20,13 -29,29 -20,34 -89,83 -144,102 -22,7 -44,18 -50,24 -5,6 -38,26 -72,44 -60,32 -82,59 -68,82 8,11 -17,34 -52,49 -13,5 -23,16 -23,25 0,8 -7,15 -15,15 -8,0 -24,9 -34,19 -12,12 -22,16 -29,9 -6,-6 -16,-6 -28,0 -65,35 -126,62 -139,62 -9,0 -26,6 -38,14 -29,18 -94,26 -135,16 z"
           inkscape:connector-curvature="0"
           style="stroke-width:9.92125984;stroke-miterlimit:4;stroke-dasharray:none" />
      </g>
      <g
         id="g3067"
         transform="matrix(0.1,0,0,-0.1,0,533)"
         style="fill:none;stroke:#ff0000;stroke-width:9.92125984;stroke-miterlimit:4;stroke-dasharray:none">
        <path
           id="path3069"
           d="m 893,4996 c -9,-14 -4,-159 8,-220 5,-28 18,-59 28,-70 10,-12 22,-32 26,-46 4,-13 23,-47 41,-73 19,-27 34,-55 34,-61 0,-29 137,-136 175,-136 10,0 28,-11 41,-25 20,-22 22,-31 16,-68 -9,-46 -8,-63 6,-151 5,-32 8,-73 6,-90 -2,-17 -5,-43 -7,-57 -7,-62 -52,-151 -99,-192 -67,-61 -73,-65 -115,-83 -131,-57 -203,-96 -203,-110 0,-11 -8,-14 -27,-12 -27,3 -28,1 -28,-45 0,-41 -4,-51 -30,-71 -16,-13 -57,-32 -90,-41 -33,-9 -87,-25 -120,-37 -33,-11 -84,-27 -114,-35 -78,-21 -107,-46 -114,-97 -8,-54 14,-149 57,-251 37,-86 43,-109 76,-255 12,-52 31,-133 42,-180 12,-47 29,-119 38,-160 23,-102 38,-133 104,-215 39,-49 56,-79 56,-100 1,-32 4,-56 25,-205 15,-104 8,-258 -19,-475 -20,-157 -20,-187 4,-280 11,-43 20,-90 20,-104 0,-14 18,-60 41,-101 22,-41 48,-93 59,-115 10,-22 29,-50 42,-62 29,-27 196,-113 220,-113 9,0 30,-5 45,-11 15,-6 37,-15 48,-19 11,-4 40,-17 63,-29 24,-11 52,-21 62,-21 10,0 20,-6 23,-12 3,-10 16,-9 54,5 28,9 57,17 66,17 8,0 19,6 25,13 6,7 34,19 62,27 27,7 50,17 50,22 0,11 53,6 61,-5 4,-5 22,7 41,26 25,24 39,50 46,84 11,49 9,156 -4,206 -6,24 -4,27 19,27 34,0 67,14 93,38 20,19 24,19 49,6 34,-18 32,-19 33,13 0,16 4,42 7,60 6,28 10,31 34,27 22,-5 34,2 72,43 25,26 56,74 69,105 28,69 89,119 142,117 102,-3 243,4 313,16 128,22 148,27 180,46 16,10 56,25 87,33 31,8 66,20 78,26 27,15 247,54 280,50 14,-2 55,-4 91,-4 56,0 75,5 130,33 35,18 90,47 121,63 58,29 128,99 128,128 0,8 7,26 16,38 8,12 14,28 11,35 -2,6 2,24 9,38 8,16 9,30 3,40 -5,8 -9,23 -9,33 0,11 -6,27 -14,35 -7,9 -18,29 -23,45 -5,18 -23,37 -48,50 -49,27 -85,61 -85,81 0,8 -4,15 -9,15 -5,0 -16,16 -25,35 -9,19 -20,36 -25,39 -4,3 -9,28 -10,56 -1,28 -8,61 -15,73 -8,12 -17,45 -21,72 -7,57 -40,161 -67,214 -10,19 -18,40 -18,46 0,6 -9,30 -20,52 -11,23 -17,49 -14,57 4,9 2,22 -4,29 -13,16 -30,97 -38,179 -5,55 -3,73 11,94 9,14 14,28 11,31 -3,4 -2,11 3,17 11,14 37,98 47,151 4,22 8,42 9,45 13,52 13,103 -1,150 -8,30 -16,60 -17,66 -2,6 -10,19 -20,28 -9,10 -17,26 -17,37 0,11 -4,27 -9,37 -21,42 -41,94 -41,108 0,8 -7,17 -15,20 -8,4 -15,13 -15,21 0,7 -17,32 -37,54 -21,23 -42,49 -48,59 -15,27 -111,106 -201,164 -99,65 -188,108 -291,142 -90,29 -137,49 -175,76 -15,10 -42,24 -60,30 -18,6 -39,19 -46,29 -6,10 -29,23 -50,30 -31,10 -137,56 -207,90 -11,6 -30,11 -43,12 -12,0 -22,4 -22,8 0,11 -51,27 -105,33 -55,6 -100,14 -127,22 -61,18 -66,16 -105,-43 -26,-41 -38,-53 -41,-40 -5,24 -14,21 -41,-16 -22,-30 -23,-27 -6,16 7,16 3,18 -46,12 -52,-5 -53,-5 -20,7 43,16 50,35 18,47 -40,16 -42,31 -3,24 30,-5 34,-3 31,13 -2,11 -4,34 -4,52 -1,25 -5,32 -21,32 -24,0 -24,3 -4,57 18,46 13,78 -11,69 -9,-3 -15,0 -15,9 0,9 -17,19 -45,26 -25,6 -45,16 -45,21 0,6 -11,7 -24,4 -16,-4 -26,-1 -29,8 -3,8 -14,14 -24,14 -10,0 -24,1 -31,3 -35,10 -74,-117 -50,-163 5,-12 5,-18 -1,-18 -6,0 -14,12 -17,28 -10,41 -17,48 -25,26 -7,-17 -8,-16 -8,6 0,14 6,36 14,50 19,33 19,50 0,50 -8,0 -15,-6 -15,-14 0,-8 -4,-17 -8,-20 -5,-3 -7,12 -5,34 l 4,38 -55,16 c -30,9 -64,16 -75,16 -12,0 -21,4 -21,9 0,22 -155,38 -167,17 z"
           inkscape:connector-curvature="0"
           style="stroke-width:9.92125984;stroke-miterlimit:4;stroke-dasharray:none" />
        <path
           id="path3071"
           d="m 1610,4708 c 0,-29 -7,-66 -15,-82 -17,-33 -8,-46 31,-46 15,0 24,11 36,49 15,46 14,50 -4,80 -11,17 -24,31 -30,31 -5,0 -6,5 -3,10 3,6 1,10 -4,10 -7,0 -11,-22 -11,-52 z"
           inkscape:connector-curvature="0"
           style="stroke-width:9.92125984;stroke-miterlimit:4;stroke-dasharray:none" />
        <path
           id="path3073"
           d="m 1807,950 c 6,-22 18,-26 29,-9 3,6 0,15 -7,20 -22,14 -28,11 -22,-11 z"
           inkscape:connector-curvature="0"
           style="stroke-width:9.92125984;stroke-miterlimit:4;stroke-dasharray:none" />
      </g>
    </g>
    <g
       id="g3170"
       transform="matrix(1.25,0,0,1.25,527.49062,-26.364942)"
       style="stroke-width:0.99212598;stroke-miterlimit:4;stroke-dasharray:none">
      <g
         id="g3152"
         transform="matrix(0.1,0,0,-0.1,0,533)"
         style="fill:none;stroke:#000000;stroke-width:9.92125984;stroke-miterlimit:4;stroke-dasharray:none">
        <path
           id="path3154"
           d="m 893,4996 c -9,-14 -4,-159 8,-220 5,-28 18,-59 28,-70 10,-12 22,-32 26,-46 4,-13 23,-47 41,-73 19,-27 34,-55 34,-61 0,-29 137,-136 175,-136 10,0 28,-11 41,-25 20,-22 22,-31 16,-68 -9,-46 -8,-63 6,-151 5,-32 8,-73 6,-90 -2,-17 -5,-43 -7,-57 -7,-62 -52,-151 -99,-192 -67,-61 -73,-65 -115,-83 -131,-57 -203,-96 -203,-110 0,-11 -8,-14 -27,-12 -27,3 -28,1 -28,-45 0,-41 -4,-51 -30,-71 -16,-13 -57,-32 -90,-41 -33,-9 -87,-25 -120,-37 -33,-11 -84,-27 -114,-35 -78,-21 -107,-46 -114,-97 -8,-54 14,-149 57,-251 37,-86 43,-109 76,-255 12,-52 31,-133 42,-180 12,-47 29,-119 38,-160 23,-102 38,-133 104,-215 39,-49 56,-79 56,-100 1,-32 4,-56 25,-205 15,-104 8,-258 -19,-475 -20,-157 -20,-187 4,-280 11,-43 20,-90 20,-104 0,-14 18,-60 41,-101 22,-41 48,-93 59,-115 10,-22 29,-50 42,-62 29,-27 196,-113 220,-113 9,0 30,-5 45,-11 15,-6 37,-15 48,-19 11,-4 40,-17 63,-29 24,-11 52,-21 62,-21 10,0 20,-6 23,-12 3,-10 16,-9 54,5 28,9 57,17 66,17 8,0 19,6 25,13 6,7 34,19 62,27 27,7 50,17 50,22 0,11 53,6 61,-5 4,-5 22,7 41,26 25,24 39,50 46,84 11,49 9,156 -4,206 -6,24 -4,27 19,27 34,0 67,14 93,38 20,19 24,19 49,6 34,-18 32,-19 33,13 0,16 4,42 7,60 6,28 10,31 34,27 22,-5 34,2 72,43 25,26 56,74 69,105 28,69 89,119 142,117 102,-3 243,4 313,16 128,22 148,27 180,46 16,10 56,25 87,33 31,8 66,20 78,26 27,15 247,54 280,50 14,-2 55,-4 91,-4 56,0 75,5 130,33 35,18 90,47 121,63 58,29 128,99 128,128 0,8 7,26 16,38 8,12 14,28 11,35 -2,6 2,24 9,38 8,16 9,30 3,40 -5,8 -9,23 -9,33 0,11 -6,27 -14,35 -7,9 -18,29 -23,45 -5,18 -23,37 -48,50 -49,27 -85,61 -85,81 0,8 -4,15 -9,15 -5,0 -16,16 -25,35 -9,19 -20,36 -25,39 -4,3 -9,28 -10,56 -1,28 -8,61 -15,73 -8,12 -17,45 -21,72 -7,57 -40,161 -67,214 -10,19 -18,40 -18,46 0,6 -9,30 -20,52 -11,23 -17,49 -14,57 4,9 2,22 -4,29 -13,16 -30,97 -38,179 -5,55 -3,73 11,94 9,14 14,28 11,31 -3,4 -2,11 3,17 11,14 37,98 47,151 4,22 8,42 9,45 13,52 13,103 -1,150 -8,30 -16,60 -17,66 -2,6 -10,19 -20,28 -9,10 -17,26 -17,37 0,11 -4,27 -9,37 -21,42 -41,94 -41,108 0,8 -7,17 -15,20 -8,4 -15,13 -15,21 0,7 -17,32 -37,54 -21,23 -42,49 -48,59 -15,27 -111,106 -201,164 -99,65 -188,108 -291,142 -90,29 -137,49 -175,76 -15,10 -42,24 -60,30 -18,6 -39,19 -46,29 -6,10 -29,23 -50,30 -31,10 -137,56 -207,90 -11,6 -30,11 -43,12 -12,0 -22,4 -22,8 0,11 -51,27 -105,33 -55,6 -100,14 -127,22 -61,18 -66,16 -105,-43 -26,-41 -38,-53 -41,-40 -5,24 -14,21 -41,-16 -22,-30 -23,-27 -6,16 7,16 3,18 -46,12 -52,-5 -53,-5 -20,7 43,16 50,35 18,47 -40,16 -42,31 -3,24 30,-5 34,-3 31,13 -2,11 -4,34 -4,52 -1,25 -5,32 -21,32 -24,0 -24,3 -4,57 18,46 13,78 -11,69 -9,-3 -15,0 -15,9 0,9 -17,19 -45,26 -25,6 -45,16 -45,21 0,6 -11,7 -24,4 -16,-4 -26,-1 -29,8 -3,8 -14,14 -24,14 -10,0 -24,1 -31,3 -35,10 -74,-117 -50,-163 5,-12 5,-18 -1,-18 -6,0 -14,12 -17,28 -10,41 -17,48 -25,26 -7,-17 -8,-16 -8,6 0,14 6,36 14,50 19,33 19,50 0,50 -8,0 -15,-6 -15,-14 0,-8 -4,-17 -8,-20 -5,-3 -7,12 -5,34 l 4,38 -55,16 c -30,9 -64,16 -75,16 -12,0 -21,4 -21,9 0,22 -155,38 -167,17 z"
           inkscape:connector-curvature="0"
           style="stroke-width:9.92125984;stroke-miterlimit:4;stroke-dasharray:none" />
        <path
           id="path3156"
           d="m 1610,4708 c 0,-29 -7,-66 -15,-82 -17,-33 -8,-46 31,-46 15,0 24,11 36,49 15,46 14,50 -4,80 -11,17 -24,31 -30,31 -5,0 -6,5 -3,10 3,6 1,10 -4,10 -7,0 -11,-22 -11,-52 z"
           inkscape:connector-curvature="0"
           style="stroke-width:9.92125984;stroke-miterlimit:4;stroke-dasharray:none" />
        <path
           id="path3158"
           d="m 1807,950 c 6,-22 18,-26 29,-9 3,6 0,15 -7,20 -22,14 -28,11 -22,-11 z"
           inkscape:connector-curvature="0"
           style="stroke-width:9.92125984;stroke-miterlimit:4;stroke-dasharray:none" />
      </g>
      <g
         id="g3160"
         transform="matrix(0.1,0,0,-0.1,0,533)"
         style="fill:none;stroke:#ff0000;stroke-width:9.92125984;stroke-miterlimit:4;stroke-dasharray:none">
        <path
           id="path3162"
           d="m 1299,4746 c -1,-6 -1,-16 0,-22 2,-19 -31,-26 -48,-11 -9,8 -42,17 -73,21 l -58,6 3,-38 c 1,-21 10,-51 20,-65 10,-15 14,-27 11,-27 -4,0 1,-9 11,-20 10,-11 15,-20 12,-20 -4,0 11,-17 34,-37 51,-46 124,-59 199,-37 44,13 50,19 59,51 8,30 7,38 -6,48 -11,9 -14,20 -9,40 7,29 -24,89 -54,101 -38,14 -100,21 -101,10 z"
           inkscape:connector-curvature="0"
           style="stroke-width:9.92125984;stroke-miterlimit:4;stroke-dasharray:none" />
        <path
           id="path3164"
           d="m 2024,4195 c -23,-5 -58,-25 -79,-42 -21,-18 -43,-33 -49,-33 -12,0 -56,-49 -56,-62 0,-4 -7,-8 -15,-8 -8,0 -20,-9 -27,-20 -7,-11 -18,-20 -24,-20 -7,0 -14,-10 -18,-23 -6,-25 -77,-77 -104,-77 -25,0 -123,-53 -153,-82 -34,-32 -68,-133 -69,-202 0,-17 -12,-42 -29,-62 -16,-18 -42,-55 -57,-81 -36,-64 -63,-93 -86,-93 -11,0 -32,-7 -47,-15 -16,-8 -31,-11 -35,-8 -3,4 -6,-1 -6,-9 0,-10 -13,-18 -38,-22 -22,-3 -51,-15 -65,-26 -14,-11 -37,-20 -52,-20 -14,0 -35,-5 -46,-10 -15,-9 -21,-7 -25,5 -5,13 -9,13 -21,3 -16,-13 -44,-15 -273,-21 -165,-4 -200,-13 -200,-53 0,-21 72,-178 154,-334 36,-68 76,-161 92,-213 9,-31 23,-62 31,-68 7,-6 10,-15 7,-20 -2,-5 2,-19 11,-32 24,-38 67,-242 81,-387 2,-25 9,-58 14,-75 10,-27 15,-309 6,-324 -2,-3 -7,-46 -10,-96 -4,-49 -9,-124 -12,-165 -10,-134 11,-237 88,-437 27,-70 98,-141 179,-181 60,-29 74,-32 161,-32 102,0 186,12 223,32 59,33 126,85 131,103 20,62 74,107 87,73 4,-9 6,-8 6,3 1,8 -4,20 -10,26 -22,22 99,153 142,153 8,0 25,9 39,20 14,11 29,20 34,20 21,0 141,126 167,176 16,29 29,58 29,63 0,5 14,33 31,63 37,64 95,110 214,173 49,25 105,61 125,78 90,79 126,107 136,107 6,0 19,9 29,20 10,11 22,20 27,20 5,0 24,11 43,25 50,39 89,47 109,24 10,-13 14,-28 10,-44 -9,-36 20,-33 48,5 17,23 30,30 55,30 20,0 36,-6 39,-14 7,-19 34,-9 34,12 0,9 -9,25 -19,36 -17,18 -19,27 -10,64 5,24 21,61 36,83 15,23 23,43 17,47 -12,9 -15,147 -4,176 8,22 -3,77 -33,166 -8,25 -16,74 -18,110 -2,42 -10,75 -21,91 -20,30 -49,134 -54,194 -2,22 -6,66 -10,98 -6,54 -5,60 23,95 36,45 53,76 53,97 0,9 9,29 21,44 21,29 42,106 40,148 0,12 4,25 9,28 17,10 -5,162 -37,255 -8,25 -18,56 -21,69 -7,34 -90,141 -116,151 -11,4 -30,17 -40,29 -11,11 -23,21 -29,21 -5,0 -22,11 -39,25 -16,14 -36,25 -44,25 -8,0 -31,8 -52,19 -20,10 -62,24 -92,31 -30,7 -73,19 -95,27 -62,22 -163,40 -202,37 -20,-1 -47,2 -62,8 -35,14 -126,16 -177,3 z"
           inkscape:connector-curvature="0"
           style="stroke-width:9.92125984;stroke-miterlimit:4;stroke-dasharray:none" />
      </g>
    </g>
    <g
       id="g3258"
       transform="matrix(1.25,0,0,1.25,657.13114,431.0939)"
       style="stroke-width:0.99212598;stroke-miterlimit:4;stroke-dasharray:none">
      <g
         id="g3242"
         transform="matrix(0.1,0,0,-0.1,0,533)"
         style="fill:none;stroke:#000000;stroke-width:9.92125984;stroke-miterlimit:4;stroke-dasharray:none">
        <path
           id="path3244"
           d="m 1299,4746 c -1,-6 -1,-16 0,-22 2,-19 -31,-26 -48,-11 -9,8 -42,17 -73,21 l -58,6 3,-38 c 1,-21 10,-51 20,-65 10,-15 14,-27 11,-27 -4,0 1,-9 11,-20 10,-11 15,-20 12,-20 -4,0 11,-17 34,-37 51,-46 124,-59 199,-37 44,13 50,19 59,51 8,30 7,38 -6,48 -11,9 -14,20 -9,40 7,29 -24,89 -54,101 -38,14 -100,21 -101,10 z"
           inkscape:connector-curvature="0"
           style="stroke-width:9.92125984;stroke-miterlimit:4;stroke-dasharray:none" />
        <path
           id="path3246"
           d="m 2024,4195 c -23,-5 -58,-25 -79,-42 -21,-18 -43,-33 -49,-33 -12,0 -56,-49 -56,-62 0,-4 -7,-8 -15,-8 -8,0 -20,-9 -27,-20 -7,-11 -18,-20 -24,-20 -7,0 -14,-10 -18,-23 -6,-25 -77,-77 -104,-77 -25,0 -123,-53 -153,-82 -34,-32 -68,-133 -69,-202 0,-17 -12,-42 -29,-62 -16,-18 -42,-55 -57,-81 -36,-64 -63,-93 -86,-93 -11,0 -32,-7 -47,-15 -16,-8 -31,-11 -35,-8 -3,4 -6,-1 -6,-9 0,-10 -13,-18 -38,-22 -22,-3 -51,-15 -65,-26 -14,-11 -37,-20 -52,-20 -14,0 -35,-5 -46,-10 -15,-9 -21,-7 -25,5 -5,13 -9,13 -21,3 -16,-13 -44,-15 -273,-21 -165,-4 -200,-13 -200,-53 0,-21 72,-178 154,-334 36,-68 76,-161 92,-213 9,-31 23,-62 31,-68 7,-6 10,-15 7,-20 -2,-5 2,-19 11,-32 24,-38 67,-242 81,-387 2,-25 9,-58 14,-75 10,-27 15,-309 6,-324 -2,-3 -7,-46 -10,-96 -4,-49 -9,-124 -12,-165 -10,-134 11,-237 88,-437 27,-70 98,-141 179,-181 60,-29 74,-32 161,-32 102,0 186,12 223,32 59,33 126,85 131,103 20,62 74,107 87,73 4,-9 6,-8 6,3 1,8 -4,20 -10,26 -22,22 99,153 142,153 8,0 25,9 39,20 14,11 29,20 34,20 21,0 141,126 167,176 16,29 29,58 29,63 0,5 14,33 31,63 37,64 95,110 214,173 49,25 105,61 125,78 90,79 126,107 136,107 6,0 19,9 29,20 10,11 22,20 27,20 5,0 24,11 43,25 50,39 89,47 109,24 10,-13 14,-28 10,-44 -9,-36 20,-33 48,5 17,23 30,30 55,30 20,0 36,-6 39,-14 7,-19 34,-9 34,12 0,9 -9,25 -19,36 -17,18 -19,27 -10,64 5,24 21,61 36,83 15,23 23,43 17,47 -12,9 -15,147 -4,176 8,22 -3,77 -33,166 -8,25 -16,74 -18,110 -2,42 -10,75 -21,91 -20,30 -49,134 -54,194 -2,22 -6,66 -10,98 -6,54 -5,60 23,95 36,45 53,76 53,97 0,9 9,29 21,44 21,29 42,106 40,148 0,12 4,25 9,28 17,10 -5,162 -37,255 -8,25 -18,56 -21,69 -7,34 -90,141 -116,151 -11,4 -30,17 -40,29 -11,11 -23,21 -29,21 -5,0 -22,11 -39,25 -16,14 -36,25 -44,25 -8,0 -31,8 -52,19 -20,10 -62,24 -92,31 -30,7 -73,19 -95,27 -62,22 -163,40 -202,37 -20,-1 -47,2 -62,8 -35,14 -126,16 -177,3 z"
           inkscape:connector-curvature="0"
           style="stroke-width:9.92125984;stroke-miterlimit:4;stroke-dasharray:none" />
      </g>
      <g
         id="g3248"
         transform="matrix(0.1,0,0,-0.1,0,533)"
         style="fill:none;stroke:#ff0000;stroke-width:9.92125984;stroke-miterlimit:4;stroke-dasharray:none">
        <path
           id="path3250"
           d="m 2207,3974 c -4,-4 -28,-8 -54,-9 -65,-3 -85,-11 -108,-45 -11,-16 -35,-36 -55,-44 -37,-16 -56,-27 -109,-65 -18,-13 -53,-29 -77,-37 -54,-16 -149,-85 -168,-123 -36,-69 -11,-169 55,-222 21,-17 39,-37 39,-45 0,-8 8,-14 19,-14 24,0 37,-17 46,-57 3,-18 10,-35 15,-38 12,-7 -22,-65 -37,-65 -7,0 -13,-7 -13,-15 0,-8 -4,-15 -8,-15 -4,0 -13,-14 -19,-31 -7,-16 -18,-29 -25,-28 -28,3 -36,-2 -48,-31 -9,-21 -27,-36 -58,-50 -26,-12 -49,-24 -52,-28 -3,-5 -26,-16 -52,-26 -47,-17 -130,-93 -156,-141 -7,-14 -19,-25 -27,-25 -8,0 -15,-4 -15,-9 0,-5 -6,-16 -12,-23 -25,-26 -54,-74 -68,-108 -7,-19 -21,-46 -30,-60 -32,-50 -81,-161 -87,-198 -3,-20 -12,-49 -19,-64 -8,-15 -14,-44 -14,-65 0,-21 -5,-54 -10,-73 -10,-31 -15,-86 -24,-245 -2,-27 -10,-64 -19,-80 -28,-53 -52,-339 -40,-489 5,-68 11,-85 41,-130 19,-28 48,-76 63,-107 15,-31 40,-66 56,-77 25,-18 33,-18 76,-7 26,6 55,19 65,28 10,9 45,19 77,23 33,4 70,14 82,21 12,8 37,17 55,20 56,8 136,64 258,178 36,34 80,72 98,84 18,13 57,53 87,90 29,38 61,76 70,85 10,9 26,39 36,66 10,27 27,59 36,72 33,41 464,468 473,468 5,0 36,26 68,58 54,54 60,64 75,131 19,81 10,150 -22,186 -10,11 -26,44 -36,72 -9,29 -23,56 -31,61 -17,10 -74,98 -74,116 0,7 -9,24 -21,37 -37,42 -52,79 -39,94 7,8 9,19 5,25 -3,5 -1,10 5,10 8,0 9,14 4,45 l -6,45 124,125 c 83,83 131,139 143,167 9,24 22,53 28,65 7,15 6,38 -2,75 -6,29 -13,76 -15,104 -2,28 -8,60 -14,70 -6,11 -20,46 -31,79 -27,77 -86,138 -155,160 -37,13 -90,18 -191,19 -77,0 -143,4 -146,9 -3,4 -8,4 -12,1 z"
           inkscape:connector-curvature="0"
           style="stroke-width:9.92125984;stroke-miterlimit:4;stroke-dasharray:none" />
        <path
           id="path3252"
           d="m 578,3184 c -23,-7 -23,-21 1,-60 10,-17 22,-41 26,-55 11,-35 75,-99 101,-99 12,0 41,-16 64,-35 23,-19 54,-38 69,-41 14,-3 32,-7 39,-10 6,-2 12,3 12,11 0,8 6,12 13,10 22,-8 52,47 52,97 0,38 -5,52 -29,77 -17,17 -34,31 -40,31 -5,0 -41,16 -80,37 -59,30 -83,37 -141,39 -38,2 -78,1 -87,-2 z"
           inkscape:connector-curvature="0"
           style="stroke-width:9.92125984;stroke-miterlimit:4;stroke-dasharray:none" />
      </g>
    </g>
    <g
       id="g3349"
       transform="matrix(1.25,0,0,1.25,334.42547,494.72833)"
       style="stroke-width:0.99212598;stroke-miterlimit:4;stroke-dasharray:none">
      <g
         id="g3331"
         transform="matrix(0.1,0,0,-0.1,0,533)"
         style="fill:none;stroke:#000000;stroke-width:9.92125984;stroke-miterlimit:4;stroke-dasharray:none">
        <path
           id="path3333"
           d="m 2207,3974 c -4,-4 -28,-8 -54,-9 -65,-3 -85,-11 -108,-45 -11,-16 -35,-36 -55,-44 -37,-16 -56,-27 -109,-65 -18,-13 -53,-29 -77,-37 -54,-16 -149,-85 -168,-123 -36,-69 -11,-169 55,-222 21,-17 39,-37 39,-45 0,-8 8,-14 19,-14 24,0 37,-17 46,-57 3,-18 10,-35 15,-38 12,-7 -22,-65 -37,-65 -7,0 -13,-7 -13,-15 0,-8 -4,-15 -8,-15 -4,0 -13,-14 -19,-31 -7,-16 -18,-29 -25,-28 -28,3 -36,-2 -48,-31 -9,-21 -27,-36 -58,-50 -26,-12 -49,-24 -52,-28 -3,-5 -26,-16 -52,-26 -47,-17 -130,-93 -156,-141 -7,-14 -19,-25 -27,-25 -8,0 -15,-4 -15,-9 0,-5 -6,-16 -12,-23 -25,-26 -54,-74 -68,-108 -7,-19 -21,-46 -30,-60 -32,-50 -81,-161 -87,-198 -3,-20 -12,-49 -19,-64 -8,-15 -14,-44 -14,-65 0,-21 -5,-54 -10,-73 -10,-31 -15,-86 -24,-245 -2,-27 -10,-64 -19,-80 -28,-53 -52,-339 -40,-489 5,-68 11,-85 41,-130 19,-28 48,-76 63,-107 15,-31 40,-66 56,-77 25,-18 33,-18 76,-7 26,6 55,19 65,28 10,9 45,19 77,23 33,4 70,14 82,21 12,8 37,17 55,20 56,8 136,64 258,178 36,34 80,72 98,84 18,13 57,53 87,90 29,38 61,76 70,85 10,9 26,39 36,66 10,27 27,59 36,72 33,41 464,468 473,468 5,0 36,26 68,58 54,54 60,64 75,131 19,81 10,150 -22,186 -10,11 -26,44 -36,72 -9,29 -23,56 -31,61 -17,10 -74,98 -74,116 0,7 -9,24 -21,37 -37,42 -52,79 -39,94 7,8 9,19 5,25 -3,5 -1,10 5,10 8,0 9,14 4,45 l -6,45 124,125 c 83,83 131,139 143,167 9,24 22,53 28,65 7,15 6,38 -2,75 -6,29 -13,76 -15,104 -2,28 -8,60 -14,70 -6,11 -20,46 -31,79 -27,77 -86,138 -155,160 -37,13 -90,18 -191,19 -77,0 -143,4 -146,9 -3,4 -8,4 -12,1 z"
           inkscape:connector-curvature="0"
           style="stroke-width:9.92125984;stroke-miterlimit:4;stroke-dasharray:none" />
        <path
           id="path3335"
           d="m 578,3184 c -23,-7 -23,-21 1,-60 10,-17 22,-41 26,-55 11,-35 75,-99 101,-99 12,0 41,-16 64,-35 23,-19 54,-38 69,-41 14,-3 32,-7 39,-10 6,-2 12,3 12,11 0,8 6,12 13,10 22,-8 52,47 52,97 0,38 -5,52 -29,77 -17,17 -34,31 -40,31 -5,0 -41,16 -80,37 -59,30 -83,37 -141,39 -38,2 -78,1 -87,-2 z"
           inkscape:connector-curvature="0"
           style="stroke-width:9.92125984;stroke-miterlimit:4;stroke-dasharray:none" />
      </g>
      <g
         id="g3337"
         transform="matrix(0.1,0,0,-0.1,0,533)"
         style="fill:none;stroke:#ff0000;stroke-width:9.92125984;stroke-miterlimit:4;stroke-dasharray:none">
        <path
           id="path3339"
           d="m 2101,3844 c -25,-13 -52,-31 -61,-39 -9,-8 -22,-15 -28,-15 -6,0 -16,-9 -22,-20 -6,-11 -17,-20 -24,-20 -41,0 -137,-67 -166,-117 l -21,-35 21,-59 c 11,-33 20,-66 20,-74 0,-9 9,-15 23,-15 13,0 37,-11 53,-25 16,-14 34,-25 40,-25 6,0 30,-14 53,-30 22,-17 59,-37 81,-46 22,-9 40,-20 40,-24 0,-5 20,-20 45,-34 25,-15 45,-31 45,-37 0,-5 6,-9 13,-8 6,1 20,-1 30,-6 17,-7 32,-6 130,13 56,10 46,2 88,77 18,33 38,65 44,70 12,11 41,54 63,95 17,31 20,52 23,160 2,78 -1,90 -28,140 -28,51 -34,56 -89,73 -48,15 -67,16 -102,7 -31,-7 -62,-8 -105,0 -117,19 -120,19 -166,-6 z"
           inkscape:connector-curvature="0"
           style="stroke-width:9.92125984;stroke-miterlimit:4;stroke-dasharray:none" />
        <path
           id="path3341"
           d="m 705,3069 c -4,-6 -1,-15 6,-20 21,-13 31,-11 27,8 -4,20 -24,28 -33,12 z"
           inkscape:connector-curvature="0"
           style="stroke-width:9.92125984;stroke-miterlimit:4;stroke-dasharray:none" />
        <path
           id="path3343"
           d="m 1978,2745 c -1,-2 -41,-6 -88,-10 -112,-8 -218,-21 -255,-32 -58,-16 -134,-63 -151,-93 -10,-16 -21,-30 -25,-30 -17,0 -115,-114 -132,-152 -9,-22 -24,-54 -31,-72 -8,-17 -20,-78 -26,-136 -16,-151 -16,-148 -39,-235 -11,-44 -21,-99 -21,-123 0,-24 -6,-55 -14,-70 -14,-28 -30,-146 -28,-218 0,-55 51,-152 72,-139 3,2 44,9 91,14 138,18 367,105 445,170 17,14 60,48 94,76 35,27 94,90 131,140 38,49 97,122 131,162 35,39 86,102 113,139 28,37 74,91 104,121 58,58 111,156 111,205 0,23 -14,43 -68,96 -38,37 -76,73 -85,80 -22,16 -107,62 -107,56 0,-2 -12,1 -27,7 -15,6 -46,12 -68,15 -22,3 -51,9 -65,14 -49,16 -58,19 -62,15 z"
           inkscape:connector-curvature="0"
           style="stroke-width:9.92125984;stroke-miterlimit:4;stroke-dasharray:none" />
      </g>
    </g>
    <g
       id="g3441"
       transform="matrix(1.25,0,0,1.25,66.421216,536.34804)"
       style="stroke-width:0.99212598;stroke-miterlimit:4;stroke-dasharray:none">
      <g
         id="g3423"
         transform="matrix(0.1,0,0,-0.1,0,533)"
         style="fill:none;stroke:#000000;stroke-width:9.92125984;stroke-miterlimit:4;stroke-dasharray:none">
        <path
           id="path3425"
           d="m 2101,3844 c -25,-13 -52,-31 -61,-39 -9,-8 -22,-15 -28,-15 -6,0 -16,-9 -22,-20 -6,-11 -17,-20 -24,-20 -41,0 -137,-67 -166,-117 l -21,-35 21,-59 c 11,-33 20,-66 20,-74 0,-9 9,-15 23,-15 13,0 37,-11 53,-25 16,-14 34,-25 40,-25 6,0 30,-14 53,-30 22,-17 59,-37 81,-46 22,-9 40,-20 40,-24 0,-5 20,-20 45,-34 25,-15 45,-31 45,-37 0,-5 6,-9 13,-8 6,1 20,-1 30,-6 17,-7 32,-6 130,13 56,10 46,2 88,77 18,33 38,65 44,70 12,11 41,54 63,95 17,31 20,52 23,160 2,78 -1,90 -28,140 -28,51 -34,56 -89,73 -48,15 -67,16 -102,7 -31,-7 -62,-8 -105,0 -117,19 -120,19 -166,-6 z"
           inkscape:connector-curvature="0"
           style="stroke-width:9.92125984;stroke-miterlimit:4;stroke-dasharray:none" />
        <path
           id="path3427"
           d="m 705,3069 c -4,-6 -1,-15 6,-20 21,-13 31,-11 27,8 -4,20 -24,28 -33,12 z"
           inkscape:connector-curvature="0"
           style="stroke-width:9.92125984;stroke-miterlimit:4;stroke-dasharray:none" />
        <path
           id="path3429"
           d="m 1978,2745 c -1,-2 -41,-6 -88,-10 -112,-8 -218,-21 -255,-32 -58,-16 -134,-63 -151,-93 -10,-16 -21,-30 -25,-30 -17,0 -115,-114 -132,-152 -9,-22 -24,-54 -31,-72 -8,-17 -20,-78 -26,-136 -16,-151 -16,-148 -39,-235 -11,-44 -21,-99 -21,-123 0,-24 -6,-55 -14,-70 -14,-28 -30,-146 -28,-218 0,-55 51,-152 72,-139 3,2 44,9 91,14 138,18 367,105 445,170 17,14 60,48 94,76 35,27 94,90 131,140 38,49 97,122 131,162 35,39 86,102 113,139 28,37 74,91 104,121 58,58 111,156 111,205 0,23 -14,43 -68,96 -38,37 -76,73 -85,80 -22,16 -107,62 -107,56 0,-2 -12,1 -27,7 -15,6 -46,12 -68,15 -22,3 -51,9 -65,14 -49,16 -58,19 -62,15 z"
           inkscape:connector-curvature="0"
           style="stroke-width:9.92125984;stroke-miterlimit:4;stroke-dasharray:none" />
      </g>
      <g
         id="g3431"
         transform="matrix(0.1,0,0,-0.1,0,533)"
         style="fill:none;stroke:#ff0000;stroke-width:9.92125984;stroke-miterlimit:4;stroke-dasharray:none">
        <path
           id="path3433"
           d="m 2087,3766 c -31,-26 -60,-52 -64,-59 -12,-19 -65,-51 -93,-57 -18,-4 -24,-11 -23,-28 0,-12 1,-33 2,-47 1,-28 113,-153 165,-184 46,-27 176,-55 233,-48 36,4 53,12 71,34 13,15 32,37 41,48 10,12 25,52 34,90 29,119 19,217 -24,230 -9,3 -20,13 -23,21 -4,11 -10,12 -24,5 -11,-6 -33,-6 -57,-1 -22,5 -62,14 -90,20 -27,6 -59,13 -71,16 -14,4 -37,-8 -77,-40 z"
           inkscape:connector-curvature="0"
           style="stroke-width:9.92125984;stroke-miterlimit:4;stroke-dasharray:none" />
        <path
           id="path3435"
           d="m 1700,2530 c -53,-12 -138,-68 -186,-124 -85,-100 -114,-189 -115,-365 -1,-64 -2,-136 -2,-162 0,-32 8,-59 27,-92 26,-45 30,-47 74,-49 90,-4 112,2 231,61 176,89 276,188 330,326 44,112 89,200 119,230 16,17 34,40 40,52 11,19 7,25 -30,52 -23,17 -51,31 -62,31 -12,0 -34,7 -50,15 -15,8 -40,18 -55,21 -46,11 -275,13 -321,4 z"
           inkscape:connector-curvature="0"
           style="stroke-width:9.92125984;stroke-miterlimit:4;stroke-dasharray:none" />
      </g>
    </g>
    <g
       id="g3533"
       transform="matrix(1.25,0,0,1.25,246.10999,-174.63674)"
       style="stroke-width:0.99212598;stroke-miterlimit:4;stroke-dasharray:none">
      <g
         id="g3515"
         transform="matrix(0.1,0,0,-0.1,0,533)"
         style="fill:none;stroke:#000000;stroke-width:9.92125984;stroke-miterlimit:4;stroke-dasharray:none">
        <path
           id="path3517"
           d="m 2087,3766 c -31,-26 -60,-52 -64,-59 -12,-19 -65,-51 -93,-57 -18,-4 -24,-11 -23,-28 0,-12 1,-33 2,-47 1,-28 113,-153 165,-184 46,-27 176,-55 233,-48 36,4 53,12 71,34 13,15 32,37 41,48 10,12 25,52 34,90 29,119 19,217 -24,230 -9,3 -20,13 -23,21 -4,11 -10,12 -24,5 -11,-6 -33,-6 -57,-1 -22,5 -62,14 -90,20 -27,6 -59,13 -71,16 -14,4 -37,-8 -77,-40 z"
           inkscape:connector-curvature="0"
           style="stroke-width:9.92125984;stroke-miterlimit:4;stroke-dasharray:none" />
        <path
           id="path3519"
           d="m 1700,2530 c -53,-12 -138,-68 -186,-124 -85,-100 -114,-189 -115,-365 -1,-64 -2,-136 -2,-162 0,-32 8,-59 27,-92 26,-45 30,-47 74,-49 90,-4 112,2 231,61 176,89 276,188 330,326 44,112 89,200 119,230 16,17 34,40 40,52 11,19 7,25 -30,52 -23,17 -51,31 -62,31 -12,0 -34,7 -50,15 -15,8 -40,18 -55,21 -46,11 -275,13 -321,4 z"
           inkscape:connector-curvature="0"
           style="stroke-width:9.92125984;stroke-miterlimit:4;stroke-dasharray:none" />
      </g>
      <g
         id="g3521"
         transform="matrix(0.1,0,0,-0.1,0,533)"
         style="fill:none;stroke:#ff0000;stroke-width:9.92125984;stroke-miterlimit:4;stroke-dasharray:none">
        <path
           id="path3523"
           d="m 2142,3702 c -21,-7 -47,-41 -88,-119 -17,-31 -17,-34 2,-68 25,-48 76,-76 141,-80 29,-1 53,1 53,6 0,4 12,9 28,11 19,2 26,8 24,20 -1,10 4,28 12,40 8,13 17,38 21,56 4,18 15,37 26,42 26,14 24,40 -2,40 -21,0 -79,29 -79,40 0,4 -13,5 -29,2 -16,-2 -32,1 -35,7 -8,12 -37,13 -74,3 z"
           inkscape:connector-curvature="0"
           style="stroke-width:9.92125984;stroke-miterlimit:4;stroke-dasharray:none" />
        <path
           id="path3525"
           d="m 2325,3680 c -3,-5 -1,-10 4,-10 6,0 11,5 11,10 0,6 -2,10 -4,10 -3,0 -8,-4 -11,-10 z"
           inkscape:connector-curvature="0"
           style="stroke-width:9.92125984;stroke-miterlimit:4;stroke-dasharray:none" />
        <path
           id="path3527"
           d="m 1721,2388 c -108,-19 -170,-104 -179,-244 -5,-92 11,-193 37,-225 15,-19 18,-19 84,-4 101,23 200,93 238,168 28,53 44,233 24,264 -24,36 -123,56 -204,41 z"
           inkscape:connector-curvature="0"
           style="stroke-width:9.92125984;stroke-miterlimit:4;stroke-dasharray:none" />
      </g>
    </g>
    <g
       id="g3601"
       transform="matrix(0.125,0,0,-0.125,100.17424,474.66551)"
       style="fill:none;stroke:#000000;stroke-width:9.92125984;stroke-miterlimit:4;stroke-dasharray:none">
      <path
         id="path3603"
         d="m 2142,3702 c -21,-7 -47,-41 -88,-119 -17,-31 -17,-34 2,-68 25,-48 76,-76 141,-80 29,-1 53,1 53,6 0,4 12,9 28,11 19,2 26,8 24,20 -1,10 4,28 12,40 8,13 17,38 21,56 4,18 15,37 26,42 26,14 24,40 -2,40 -21,0 -79,29 -79,40 0,4 -13,5 -29,2 -16,-2 -32,1 -35,7 -8,12 -37,13 -74,3 z"
         inkscape:connector-curvature="0"
         style="stroke-width:9.92125984;stroke-miterlimit:4;stroke-dasharray:none" />
      <path
         id="path3605"
         d="m 2325,3680 c -3,-5 -1,-10 4,-10 6,0 11,5 11,10 0,6 -2,10 -4,10 -3,0 -8,-4 -11,-10 z"
         inkscape:connector-curvature="0"
         style="stroke-width:9.92125984;stroke-miterlimit:4;stroke-dasharray:none" />
      <path
         id="path3607"
         d="m 1721,2388 c -108,-19 -170,-104 -179,-244 -5,-92 11,-193 37,-225 15,-19 18,-19 84,-4 101,23 200,93 238,168 28,53 44,233 24,264 -24,36 -123,56 -204,41 z"
         inkscape:connector-curvature="0"
         style="stroke-width:9.92125984;stroke-miterlimit:4;stroke-dasharray:none" />
    </g>
  </g>
</svg>
